HIERARCHY
ROOT Hips
{
	OFFSET -3.958830 18.904000 13.208200
	CHANNELS 6 Xposition Yposition Zposition Zrotation Yrotation Xrotation 
	JOINT LHipJoint
	{
		OFFSET 0.000000 0.000000 0.000000
		CHANNELS 3 Zrotation Yrotation Xrotation
		JOINT LeftUpLeg
		{
			OFFSET 1.800000 -1.400000 0.085000
			CHANNELS 3 Zrotation Yrotation Xrotation
			JOINT LeftLeg
			{
				OFFSET 2.215000 -6.000000 0.000000
				CHANNELS 3 Zrotation Yrotation Xrotation
				JOINT LeftFoot
				{
					OFFSET 2.500000 -6.900000 0.000000
					CHANNELS 3 Zrotation Yrotation Xrotation
					JOINT LeftToeBase
					{
						OFFSET 0.200000 -0.500000 1.950000
						CHANNELS 3 Zrotation Yrotation Xrotation
						End Site
						{
							OFFSET 0.000000 0.000000 0.000000
						}
					}
				}
			}
		}
	}
	JOINT RHipJoint
	{
		OFFSET 0.000000 0.000000 0.000000
		CHANNELS 3 Zrotation Yrotation Xrotation
		JOINT RightUpLeg
		{
			OFFSET -1.800000 -1.400000 0.085000
			CHANNELS 3 Zrotation Yrotation Xrotation
			JOINT RightLeg
			{
				OFFSET -2.215000 -6.000000 0.000000
				CHANNELS 3 Zrotation Yrotation Xrotation
				JOINT RightFoot
				{
					OFFSET -2.500000 -6.900000 0.000000
					CHANNELS 3 Zrotation Yrotation Xrotation
					JOINT RightToeBase
					{
						OFFSET -0.200000 -0.500000 1.950000
						CHANNELS 3 Zrotation Yrotation Xrotation
						End Site
						{
							OFFSET 0.000000 0.000000 0.000000
						}
					}
				}
			}
		}
	}
	JOINT LowerBack
	{
		OFFSET 0.000000 0.000000 0.000000
		CHANNELS 3 Zrotation Yrotation Xrotation
		JOINT Spine
		{
			OFFSET -0.087000 1.940000 -0.288900
			CHANNELS 3 Zrotation Yrotation Xrotation
			JOINT Spine1
			{
				OFFSET 0.000000 1.950000 0.060000
				CHANNELS 3 Zrotation Yrotation Xrotation
				JOINT Neck
				{
					OFFSET 0.000000 0.000000 0.000000
					CHANNELS 3 Zrotation Yrotation Xrotation
					JOINT Neck1
					{
						OFFSET 0.000000 1.600000 0.340000
						CHANNELS 3 Zrotation Yrotation Xrotation
						JOINT Head
						{
							OFFSET 0.000000 1.667000 -0.240000
							CHANNELS 3 Zrotation Yrotation Xrotation
							End Site
							{
								OFFSET 0.000000 0.000000 0.000000
							}
						}
					}
				}
				JOINT LeftShoulder
				{
					OFFSET 0.000000 0.000000 0.000000
					CHANNELS 3 Zrotation Yrotation Xrotation
					JOINT LeftArm
					{
						OFFSET 2.700000 1.550000 -0.730000
						CHANNELS 3 Zrotation Yrotation Xrotation
						JOINT LeftForeArm
						{
							OFFSET 5.450000 0.000000 0.000000
							CHANNELS 3 Zrotation Yrotation Xrotation
							JOINT LeftHand
							{
								OFFSET 3.450000 0.000000 0.000000
								CHANNELS 3 Zrotation Yrotation Xrotation
								JOINT LeftHandIndex1
								{
									OFFSET 0.750000 0.000000 0.000000
									CHANNELS 3 Zrotation Yrotation Xrotation
									End Site
									{
										OFFSET 0.000000 0.000000 0.000000
									}
								}
							}
						}
					}
				}
				JOINT RightShoulder
				{
					OFFSET 0.000000 0.000000 0.000000
					CHANNELS 3 Zrotation Yrotation Xrotation
					JOINT RightArm
					{
						OFFSET -2.700000 1.550000 -0.730000
						CHANNELS 3 Zrotation Yrotation Xrotation
						JOINT RightForeArm
						{
							OFFSET -5.450000 0.000000 0.000000
							CHANNELS 3 Zrotation Yrotation Xrotation
							JOINT RightHand
							{
								OFFSET -3.450000 0.000000 0.000000
								CHANNELS 3 Zrotation Yrotation Xrotation
								JOINT RightHandIndex1
								{
									OFFSET -0.750000 0.000000 0.000000
									CHANNELS 3 Zrotation Yrotation Xrotation
									End Site
									{
										OFFSET 0.000000 0.000000 0.000000
									}
								}
							}
						}
					}
				}
			}
		}
	}
}
MOTION
Frames: 8
Frame Time: 0.016667
-0.346470 17.799560 -2.693550 -17.836908 -3.314293 -10.144747 -14.352774 12.238789 0.843137 21.582247 0.753416 -10.444187 11.540182 2.894343 16.253023 -0.643522 4.287765 3.204520 0.097640 -0.309210 -0.184690 19.211943 -10.041239 5.349482 -4.755574 10.803876 -25.479324 59.384468 -56.051010 57.140528 -3.388636 -14.223292 0.113573 -0.164060 0.558120 0.025020 -6.002185 0.566165 -7.984531 18.864175 -8.888965 31.178812 -22.103632 -4.234040 0.725738 -0.328844 -12.634238 -17.060757 -49.502876 21.971544 36.958320 13.398180 -4.408630 -13.149480 -15.879832 -12.192680 7.848274 -31.867847 3.892184 -8.617370 -97.919087 -55.822746 47.989309 -3.485208 3.185661 0.956950 -0.203860 -0.015370 0.276430 17.585807 16.923539 10.823921 58.460257 -4.444941 -17.485888 54.148175 38.235738 10.495036 2.225955 -1.160501 -0.452320 0.692020 0.350720 -0.018950 
-0.395590 17.764970 -2.670820 -17.743425 -2.579999 -10.290189 -14.418121 12.227668 0.863726 22.375129 0.808649 -11.279624 10.249384 3.418926 17.409067 -0.717552 4.545603 3.095775 0.001970 -0.433690 -0.228120 19.172878 -9.767950 5.454531 -3.086899 10.790127 -25.702957 58.794598 -62.812895 62.797795 -3.511811 -14.915397 -0.035482 -0.188530 0.634010 0.033840 -5.854474 0.068570 -8.078256 16.909328 -8.556117 30.464720 -21.398542 -4.305046 0.997093 -0.108013 -12.513911 -17.008832 -47.246927 22.134699 36.229491 11.333560 -2.632770 -10.674570 -14.008792 -11.811407 7.945110 -34.424052 2.624741 -8.417740 -97.884464 -55.592978 47.397279 -3.612954 3.141731 0.949980 -0.114340 -0.090280 0.228450 15.310408 16.538675 10.498261 57.820609 -2.829711 -16.194913 54.541786 38.440338 11.125388 2.170887 -1.155163 -0.528710 0.706570 0.440100 -0.058680 
-0.460680 17.755050 -2.666340 -16.701998 -0.841405 -11.265663 -14.492886 12.297530 0.959042 22.930465 0.725020 -11.973864 8.976641 3.884216 18.523148 -0.804312 4.799637 2.985032 -0.037510 -0.545070 -0.171720 19.087020 -9.615014 5.481824 -3.656895 9.756046 -25.451500 60.100979 -66.894475 64.172295 -3.502253 -14.879222 -0.052554 -0.217260 0.641280 0.065810 -5.612406 -0.412294 -8.227767 12.607329 -8.073913 31.972211 -19.712722 -4.785512 0.962475 -0.019524 -12.289748 -16.738634 -44.418821 21.940438 37.253703 9.801620 -0.983940 -10.972640 -13.293882 -11.615032 7.742507 -34.107405 2.419758 -8.328706 -98.952702 -54.224623 46.694872 -3.670165 3.104398 1.020460 -0.088660 -0.098760 0.175170 14.462238 16.333115 10.236990 57.096891 -1.744434 -15.624313 55.067551 39.700728 12.108952 2.132956 -1.125528 -0.595870 0.711270 0.494560 -0.132520 
-0.476930 17.769430 -2.693780 -16.701106 0.024602 -12.876925 -14.535669 12.203529 1.095631 25.079011 0.964994 -12.238513 6.986029 4.737329 19.807669 -0.773527 5.144932 2.828774 0.002090 -0.518460 -0.112710 19.056807 -9.519561 5.470261 -3.543387 9.146269 -23.761358 59.676008 -69.677281 66.164197 -3.539720 -14.822581 -0.043114 -0.211480 0.604990 0.076040 -5.492546 -0.473196 -8.370525 10.750211 -8.329241 35.248568 -18.491159 -5.109827 0.808792 0.112066 -12.001334 -17.196739 -43.437517 22.564043 38.597109 10.443330 -0.165710 -12.792520 -13.219918 -12.789968 8.317112 -34.627595 3.814923 -9.676133 -100.791224 -53.537530 46.310582 -3.624280 3.075855 1.083640 -0.125540 -0.046030 0.176770 14.319504 17.516594 10.513937 55.410958 -1.611870 -16.260573 56.789415 41.385125 13.162984 2.133979 -1.108788 -0.596370 0.723640 0.470310 -0.153930 
-0.481300 17.745830 -2.744030 -15.924662 1.729323 -13.283454 -14.621830 12.148022 1.289505 25.837923 0.836538 -14.362843 5.092101 5.532084 21.885671 -0.815900 5.521571 2.643474 -0.070490 -0.621940 -0.143120 18.978839 -9.313149 5.475595 -5.660925 8.636162 -24.781579 59.549978 -70.816769 66.745882 -3.509328 -14.844183 -0.056399 -0.242390 0.647850 0.092300 -5.271493 -0.817712 -8.531096 8.271800 -8.146251 37.040450 -17.029129 -5.277274 1.159660 0.260896 -11.619453 -17.441760 -41.148975 22.766538 40.229839 10.280080 0.718600 -11.189470 -12.929336 -13.570655 8.775935 -34.869120 5.176181 -10.555266 -103.864180 -53.630245 47.944532 -3.702997 3.043614 1.106570 -0.078310 -0.080630 0.136220 13.845796 18.355632 10.646720 53.991956 -1.266306 -16.416989 58.398450 42.366721 14.062326 2.103239 -1.085466 -0.649230 0.724440 0.541560 -0.186740 
-0.475580 17.715560 -2.793350 -14.081607 4.224686 -13.659768 -14.719439 12.157498 1.391807 24.818880 0.360290 -16.571106 4.043307 6.038530 24.888699 -0.864844 5.818068 2.492415 -0.118380 -0.705470 -0.123250 18.874648 -9.096214 5.603158 -10.300521 7.811115 -26.076775 58.460193 -71.640090 68.069491 -3.487584 -14.825570 -0.072253 -0.273450 0.636660 0.111360 -5.002485 -1.220563 -8.677380 5.050011 -7.397544 39.462772 -15.422399 -5.503421 1.083144 0.536993 -11.241937 -17.113916 -39.250108 22.113348 42.574518 8.889570 0.985190 -11.075190 -12.582552 -12.758873 8.304287 -34.216872 5.827195 -10.823579 -104.849123 -52.515606 47.466775 -3.736135 3.016870 1.145130 -0.064340 -0.081600 0.081590 13.001594 17.677587 10.445204 53.950789 -1.656080 -16.769470 60.964864 43.085056 15.311575 2.089176 -1.069837 -0.682310 0.710980 0.589180 -0.229830 
-0.393060 17.668500 -2.848510 -14.326769 4.586657 -13.723509 -14.701479 11.616454 1.497979 26.049155 0.690237 -18.520028 1.775455 7.156843 26.672347 -0.805612 6.229063 2.317132 -0.085970 -0.658080 -0.082260 18.980129 -8.685380 5.957346 -13.103557 9.193978 -26.100409 48.879664 -73.346567 78.797765 -3.812063 -16.050416 -0.328055 -0.262850 0.593670 0.108780 -5.173967 -0.838385 -8.909941 8.330226 -8.320271 41.997103 -16.872957 -5.704281 0.003277 1.118428 -11.401595 -16.055510 -39.086531 21.292461 43.399707 7.474090 0.305940 -13.139650 -12.959631 -10.295664 6.872855 -32.720475 6.098368 -10.768988 -105.590368 -48.316319 43.841298 -3.682261 3.019453 1.158050 -0.092840 -0.040510 0.082980 11.914494 15.371458 9.794295 54.269365 -2.655342 -17.151048 64.725807 43.162252 16.796451 2.094772 -1.093024 -0.659440 0.723280 0.556780 -0.227980 
-0.323170 17.629730 -2.919820 -14.345339 4.456669 -13.523772 -14.665567 11.188718 1.671310 26.926744 1.094320 -20.630952 0.399345 8.099118 28.858147 -0.696090 6.626418 2.131882 -0.012560 -0.559320 -0.033920 19.074198 -8.525226 6.096460 -15.399113 10.683171 -26.373580 41.727825 -71.248615 84.987534 -4.081918 -17.099104 -0.552793 -0.245800 0.520740 0.154560 -5.360456 -0.287046 -9.076851 11.410944 -9.068383 44.595924 -18.611902 -5.596049 -1.008520 1.545379 -11.501771 -14.947396 -37.835172 20.058269 44.120132 6.524490 -0.148970 -15.167070 -14.141441 -8.401457 5.522797 -29.666664 6.852254 -10.712951 -107.126506 -45.500065 42.218198 -3.618956 3.107610 1.139810 -0.119950 0.020610 0.095510 11.862982 13.704585 9.247896 54.224271 -3.525083 -17.421182 67.284890 42.896885 17.632328 2.109184 -1.160983 -0.571760 0.663360 0.498560 -0.212060 
